<svg width="32" height="29" viewBox="0 0 32 29" fill="none" xmlns="http://www.w3.org/2000/svg">
<path d="M18.5276 11.1889C18.5276 9.96117 17.6609 9.28339 16.1387 9.28339H13.3387V13.2389H15.6998C17.522 13.2334 18.5276 12.5001 18.5276 11.1889ZM28.722 10.4778C28.1942 8.76117 28.1164 6.65561 28.1776 5.02783C28.2387 3.33339 26.9164 1.77783 25.1387 1.77783H6.872C5.08867 1.77783 3.77201 3.33894 3.83312 5.02783C3.88867 6.65561 3.81645 8.76117 3.28867 10.4778C2.75534 12.2001 1.86089 13.2889 0.388672 13.4278V15.0112C1.85534 15.1501 2.75534 16.2389 3.28867 17.9612C3.81645 19.6778 3.89423 21.7834 3.83312 23.4112C3.77201 25.1056 5.09423 26.6612 6.872 26.6612H25.1331C26.9164 26.6612 28.2331 25.1001 28.172 23.4112C28.1164 21.7834 28.1887 19.6778 28.7164 17.9612C29.2498 16.2389 30.1442 15.1501 31.6109 15.0112V13.4278C30.1498 13.2889 29.2498 12.2001 28.722 10.4778ZM16.6776 20.8389H11.2387V7.60005H16.6498C19.0553 7.60005 20.6331 8.90005 20.6331 10.9001C20.6331 12.3056 19.572 13.5612 18.2164 13.7778V13.8501C20.0609 14.0501 21.2998 15.3278 21.2998 17.0889C21.2998 19.4278 19.5609 20.8389 16.6776 20.8389ZM16.122 14.8001H13.3387V19.1556H16.2442C18.1442 19.1556 19.1498 18.3945 19.1498 16.9612C19.1498 15.5334 18.1164 14.8001 16.122 14.8001Z" fill="white"/>
</svg>
