<svg width="22" height="22" viewBox="0 0 22 22" fill="none" xmlns="http://www.w3.org/2000/svg">
<g clip-path="url(#clip0_67_34)">
<path d="M11 0.272172C4.92319 0.272172 0 5.19948 0 11.2722C0 16.1349 3.1515 20.2564 7.51919 21.7105C8.07125 21.8143 8.27063 21.474 8.27063 21.1797C8.27063 20.9185 8.26444 20.2275 8.26031 19.3104C5.19888 19.9732 4.554 17.8316 4.554 17.8316C4.05281 16.5639 3.32956 16.2235 3.32956 16.2235C2.33406 15.5436 3.40863 15.558 3.40863 15.558C4.51137 15.633 5.09163 16.689 5.09163 16.689C6.07269 18.372 7.66563 17.8852 8.29606 17.602C8.39231 16.8932 8.679 16.4057 8.99113 16.1342C6.54913 15.8585 3.98131 14.9132 3.98131 10.6981C3.98131 9.4943 4.40756 8.51392 5.11225 7.74392C4.99056 7.46823 4.61794 6.34761 5.20919 4.83236C5.20919 4.83236 6.12975 4.5388 8.23419 5.96055C9.13062 5.71673 10.0552 5.59169 10.9842 5.58861C11.9192 5.5948 12.8535 5.71717 13.7342 5.96055C15.8262 4.5388 16.7461 4.83236 16.7461 4.83236C17.3367 6.34761 16.9641 7.46755 16.8568 7.74392C17.5546 8.51392 17.9809 9.49498 17.9809 10.6981C17.9809 14.9228 15.4096 15.8544 12.9649 16.1232C13.3471 16.4525 13.7053 17.1297 13.7053 18.1575C13.7053 19.6287 13.6916 20.814 13.6916 21.1722C13.6916 21.4582 13.8841 21.8019 14.4506 21.6912C18.8506 20.2523 21.9986 16.1273 21.9986 11.2715C21.9986 5.1988 17.0754 0.271484 10.9986 0.271484L11 0.272172Z" fill="white"/>
</g>
<defs>
<clipPath id="clip0_67_34">
<rect width="22" height="22" fill="white"/>
</clipPath>
</defs>
</svg>
