<svg width="32" height="37" viewBox="0 0 32 37" fill="none" xmlns="http://www.w3.org/2000/svg">
<path d="M28.5714 2.28577H3.42857C1.53571 2.28577 0 3.82148 0 5.71434V30.8572C0 32.75 1.53571 34.2858 3.42857 34.2858H28.5714C30.4643 34.2858 32 32.75 32 30.8572V5.71434C32 3.82148 30.4643 2.28577 28.5714 2.28577ZM17.4143 27.2429C17.4143 30.3572 15.5857 31.7786 12.9214 31.7786C10.5143 31.7786 9.12143 30.5358 8.40714 29.0286L10.8571 27.5501C11.3286 28.3858 11.7571 29.0929 12.7929 29.0929C13.7786 29.0929 14.4071 28.7072 14.4071 27.2001V16.9786H17.4143V27.2429ZM24.5286 31.7786C21.7357 31.7786 19.9286 30.4501 19.05 28.7072L21.5 27.2929C22.1429 28.3429 22.9857 29.1215 24.4643 29.1215C25.7071 29.1215 26.5071 28.5 26.5071 27.6358C26.5071 26.6072 25.6929 26.2429 24.3143 25.6358L23.5643 25.3143C21.3929 24.3929 19.9571 23.2286 19.9571 20.7786C19.9571 18.5215 21.6786 16.8072 24.3571 16.8072C26.2714 16.8072 27.6429 17.4715 28.6286 19.2143L26.2857 20.7143C25.7714 19.7929 25.2143 19.4286 24.35 19.4286C23.4714 19.4286 22.9143 19.9858 22.9143 20.7143C22.9143 21.6143 23.4714 21.9786 24.7643 22.5429L25.5143 22.8643C28.0714 23.9572 29.5071 25.0786 29.5071 27.5929C29.5071 30.2929 27.3786 31.7786 24.5286 31.7786Z" fill="white"/>
</svg>
