<svg width="22" height="22" viewBox="0 0 22 22" fill="none" xmlns="http://www.w3.org/2000/svg">
<g clip-path="url(#clip0_67_19)">
<path d="M18.7413 18.7488H15.4873V13.6427C15.4873 12.4252 15.4619 10.8604 13.7858 10.8604C12.089 10.8604 11.8305 12.1811 11.8305 13.5527V18.7481H8.57244V8.24931H11.7019V9.68137H11.7439C12.1811 8.85431 13.2447 7.98463 14.8314 7.98463C18.1321 7.98463 18.7447 10.1578 18.7447 12.9834V18.7481L18.7413 18.7488ZM4.89156 6.8145C4.64288 6.81459 4.39662 6.76562 4.16689 6.67039C3.93716 6.57516 3.72847 6.43554 3.55278 6.25953C3.3771 6.08353 3.23786 5.87459 3.14305 5.64469C3.04823 5.41478 2.99971 5.16844 3.00025 4.91975C3.00066 4.54544 3.11204 4.17966 3.32032 3.86865C3.5286 3.55764 3.82442 3.31537 4.17038 3.17248C4.51634 3.02958 4.8969 2.99247 5.26395 3.06585C5.631 3.13922 5.96805 3.31978 6.23248 3.5847C6.49692 3.84961 6.67687 4.18699 6.74957 4.55417C6.82228 4.92135 6.78448 5.30184 6.64096 5.64754C6.49744 5.99324 6.25463 6.28862 5.94324 6.49634C5.63186 6.70405 5.26587 6.81477 4.89156 6.8145ZM6.52369 18.7488H3.25875V8.25H6.52369V18.7488ZM20.3748 0H1.6225C0.726687 0 0 0.708812 0 1.58606V20.4146C0 21.2919 0.726687 22.0007 1.6225 22.0007H20.3713C21.2658 22.0007 22 21.2919 22 20.4146V1.58606C22 0.708812 21.2658 0 20.3713 0H20.3748Z" fill="white"/>
</g>
<defs>
<clipPath id="clip0_67_19">
<rect width="22" height="22" fill="white"/>
</clipPath>
</defs>
</svg>
