<svg width="32" height="26" viewBox="0 0 32 26" fill="none" xmlns="http://www.w3.org/2000/svg">
<path d="M15.0918 18.946C15.0618 19 15.0768 18.976 15.0918 18.946V18.946ZM27.5483 14.596C26.5427 14.5956 25.5504 14.8266 24.6483 15.271C24.3533 14.676 24.0483 14.156 23.9983 13.766C23.9383 13.311 23.8733 13.041 23.9433 12.501C24.0133 11.961 24.3283 11.196 24.3233 11.141C24.3183 11.086 24.2533 10.811 23.6083 10.806C22.9633 10.801 22.4083 10.931 22.3438 11.101C22.2299 11.4116 22.1413 11.731 22.0788 12.056C21.9638 12.641 20.7893 14.731 20.1243 15.821C19.9043 15.396 19.7193 15.021 19.6793 14.721C19.6193 14.266 19.5543 13.996 19.6243 13.456C19.6943 12.916 20.0093 12.151 20.0043 12.096C19.9993 12.041 19.9343 11.766 19.2898 11.761C18.6453 11.756 18.0898 11.886 18.0248 12.056C17.9598 12.226 17.8898 12.626 17.7598 13.011C17.6298 13.396 16.0653 16.876 15.6558 17.781C15.4458 18.241 15.2658 18.611 15.1358 18.861C15.1158 18.901 15.1008 18.926 15.0908 18.946C15.1058 18.921 15.1158 18.896 15.1158 18.906C15.0058 19.121 14.9408 19.241 14.9408 19.241V19.246C14.8558 19.406 14.7608 19.551 14.7158 19.551C14.6858 19.551 14.6208 19.131 14.7308 18.556C14.9658 17.346 15.5208 15.466 15.5158 15.401C15.5108 15.366 15.6208 15.041 15.1508 14.866C14.6958 14.701 14.5308 14.976 14.4908 14.976C14.4508 14.976 14.4208 15.076 14.4208 15.076C14.4208 15.076 14.9258 12.956 13.4513 12.956C12.5313 12.956 11.2513 13.966 10.6223 14.881C10.2273 15.096 9.37232 15.561 8.47232 16.056C8.12732 16.246 7.77232 16.441 7.43732 16.626C7.41232 16.601 7.39232 16.576 7.36732 16.551C5.57782 14.641 2.27382 13.291 2.41382 10.726C2.46382 9.79096 2.78882 7.33596 8.76732 4.35596C13.6673 1.91596 17.5848 2.58596 18.2593 4.07596C19.2293 6.20096 16.1648 10.156 11.0763 10.726C9.13682 10.941 8.11732 10.191 7.86232 9.91096C7.59732 9.61596 7.55732 9.60096 7.45732 9.65596C7.29232 9.74596 7.39732 10.006 7.45732 10.161C7.60732 10.556 8.23232 11.256 9.29682 11.606C10.2318 11.911 12.5058 12.081 15.2553 11.016C18.3443 9.82596 20.7488 6.51096 20.0438 3.73596C19.3258 0.915959 14.6498 -0.00904125 10.2283 1.56096C7.59382 2.49596 4.74482 3.96596 2.69532 5.88096C0.260822 8.16096 -0.128678 10.146 0.0313218 10.976C0.600822 13.921 4.65982 15.841 6.28432 17.261C6.20432 17.306 6.12932 17.346 6.05932 17.386C5.24482 17.791 2.15032 19.411 1.37582 21.121C0.500822 23.061 1.52082 24.451 2.19032 24.641C4.27982 25.221 6.41932 24.176 7.56882 22.461C8.71832 20.746 8.57882 18.506 8.04882 17.486C8.04382 17.471 8.03382 17.461 8.02882 17.446C8.23882 17.321 8.45382 17.196 8.66882 17.071C9.08332 16.826 9.48832 16.601 9.84332 16.406C9.64332 16.946 9.49832 17.596 9.42332 18.536C9.33332 19.636 9.78832 21.061 10.3783 21.621C10.6383 21.866 10.9528 21.871 11.1478 21.871C11.8378 21.871 12.1478 21.301 12.4923 20.621C12.9173 19.791 13.2923 18.826 13.2923 18.826C13.2923 18.826 12.8223 21.436 14.1073 21.436C14.5768 21.436 15.0468 20.831 15.2573 20.521V20.526C15.2573 20.526 15.2673 20.506 15.2923 20.466C15.3423 20.391 15.3673 20.346 15.3673 20.346V20.331C15.5573 20.006 15.9723 19.261 16.5968 18.031C17.4068 16.441 18.1813 14.456 18.1813 14.456C18.2562 14.8923 18.3597 15.3232 18.4913 15.746C18.6313 16.221 18.9263 16.741 19.1613 17.246C18.9713 17.506 18.8563 17.656 18.8563 17.656C18.8567 17.6598 18.8585 17.6634 18.8613 17.666C18.7113 17.866 18.5413 18.081 18.3663 18.291C17.7268 19.051 16.9663 19.921 16.8663 20.171C16.7463 20.466 16.7763 20.686 17.0063 20.856C17.1763 20.986 17.4763 21.006 17.7908 20.981C18.3658 20.941 18.7708 20.801 18.9658 20.711C19.3253 20.5821 19.6651 20.4037 19.9753 20.181C20.6003 19.721 20.9803 19.061 20.9453 18.191C20.9253 17.711 20.7703 17.231 20.5803 16.781C20.6353 16.701 20.6953 16.616 20.7503 16.531C21.7398 15.086 22.5048 13.5 22.5048 13.5C22.5797 13.9363 22.6832 14.3672 22.8148 14.79C22.9348 15.195 23.1693 15.64 23.3843 16.075C22.4548 16.83 21.8798 17.705 21.6798 18.28C21.3098 19.345 21.5998 19.825 22.1448 19.935C22.3898 19.985 22.7398 19.87 22.9998 19.76C23.386 19.6313 23.75 19.4442 24.0793 19.205C24.7043 18.745 25.3088 18.1 25.2688 17.225C25.2538 16.83 25.1438 16.435 24.9988 16.055C25.7838 15.725 26.8033 15.545 28.1033 15.695C30.8873 16.02 31.4323 17.76 31.3273 18.485C31.2223 19.21 30.6373 19.615 30.4423 19.735C30.2473 19.855 30.1873 19.9 30.2023 19.99C30.2273 20.12 30.3173 20.115 30.4823 20.085C30.7123 20.045 31.9418 19.495 31.9968 18.15C32.0768 16.45 30.4423 14.58 27.5468 14.595L27.5483 14.596ZM6.08932 21.831C5.16982 22.836 3.87982 23.216 3.32532 22.896C2.73032 22.55 2.96532 21.071 4.09982 20C4.78982 19.35 5.67932 18.75 6.26932 18.38C6.40432 18.3 6.59932 18.18 6.83932 18.035C6.87932 18.01 6.89932 18 6.89932 18C6.94432 17.97 6.99432 17.945 7.04432 17.915C7.45882 19.435 7.05932 20.775 6.08932 21.83V21.831ZM12.8073 17.261C12.4873 18.046 11.8128 20.046 11.4028 19.941C11.0528 19.851 10.8378 18.326 11.3328 16.826C11.5828 16.071 12.1128 15.171 12.4278 14.821C12.9323 14.256 13.4873 14.076 13.6173 14.301C13.7923 14.596 13.0073 16.771 12.8073 17.261ZM18.3573 19.911C18.2223 19.981 18.0973 20.026 18.0373 19.991C17.9923 19.966 18.0923 19.871 18.0923 19.871C18.0923 19.871 18.7873 19.126 19.0623 18.786C19.2223 18.586 19.4073 18.351 19.6068 18.091C19.6068 18.116 19.6118 18.141 19.6118 18.171C19.6053 19.066 18.7458 19.671 18.3558 19.911H18.3573ZM22.6363 18.936C22.5363 18.866 22.5513 18.631 22.8863 17.901C23.0163 17.616 23.3158 17.136 23.8363 16.676C23.8952 16.8501 23.9273 17.0322 23.9313 17.216C23.9263 18.341 23.1213 18.761 22.6368 18.936H22.6363Z" fill="white"/>
</svg>
