<svg width="18" height="18" viewBox="0 0 18 18" fill="none" xmlns="http://www.w3.org/2000/svg">
<path d="M2.43326 4.55782C2.90381 4.22894 3.61314 4.29201 4.03563 4.64092L3.55106 3.93659C3.16111 3.38045 3.30077 2.77874 3.85742 2.38829C4.41407 1.99933 5.99141 3.04505 5.99141 3.04505C5.59795 2.4834 5.67154 1.77157 6.23319 1.37761C6.79485 0.985151 7.56975 1.12081 7.96321 1.68347L13.1793 9.05206L12.5145 15.4971L6.96655 13.4737L2.1274 6.29885C1.73044 5.73369 1.8676 4.95428 2.43326 4.55782Z" fill="#EF9645"/>
<path d="M1.34917 8.6571C1.34917 8.6571 0.782508 7.83113 1.60897 7.26497C2.43444 6.69881 3.0006 7.52428 3.0006 7.52428L5.62916 11.3577C5.71977 11.2066 5.81888 11.0574 5.92951 10.9102L2.28126 5.59052C2.28126 5.59052 1.7151 4.76506 2.54106 4.1989C3.36652 3.63274 3.93268 4.4582 3.93268 4.4582L7.36419 9.46254C7.49184 9.35841 7.62249 9.25379 7.75715 9.15117L3.779 3.3489C3.779 3.3489 3.21284 2.52344 4.03881 1.95728C4.86427 1.39112 5.43043 2.21658 5.43043 2.21658L9.40857 8.01785C9.55474 7.92825 9.69941 7.85066 9.84458 7.76856L6.12624 2.34623C6.12624 2.34623 5.56008 1.52077 6.38555 0.954611C7.21101 0.38845 7.77717 1.21391 7.77717 1.21391L11.7088 6.9476L12.3065 7.81962C9.82956 9.5186 9.59379 12.7148 11.0089 14.7787C11.2918 15.1917 11.7048 14.9089 11.7048 14.9089C10.0063 12.4315 10.5249 9.64775 13.0023 7.94927L12.2719 4.29401C12.2719 4.29401 11.9991 3.33088 12.9617 3.05756C13.9248 2.78475 14.1982 3.74787 14.1982 3.74787L15.0416 6.25279C15.376 7.24595 15.7319 8.23561 16.203 9.1717C17.5331 11.8148 16.7386 15.0996 14.2307 16.8201C11.495 18.6958 7.75514 17.9985 5.87895 15.2633L1.34917 8.6571Z" fill="#FFDC5D"/>
<path d="M6.00684 16.0187C4.00451 16.0187 1.98115 13.9953 1.98115 11.993C1.98115 11.7162 1.77841 11.4924 1.50159 11.4924C1.22477 11.4924 0.97998 11.7162 0.97998 11.993C0.97998 14.9965 3.00334 17.0199 6.00684 17.0199C6.28367 17.0199 6.50743 16.7751 6.50743 16.4983C6.50743 16.2214 6.28367 16.0187 6.00684 16.0187Z" fill="#5DADEC"/>
<path d="M3.50409 16.9988C2.00234 16.9988 1.00117 15.9977 1.00117 14.4959C1.00117 14.2191 0.777407 13.9953 0.500584 13.9953C0.223761 13.9953 0 14.2191 0 14.4959C0 16.4982 1.50175 18 3.50409 18C3.78091 18 4.00467 17.7762 4.00467 17.4994C4.00467 17.2226 3.78091 16.9988 3.50409 16.9988ZM12.014 0.980145C11.7377 0.980145 11.5134 1.20441 11.5134 1.48073C11.5134 1.75705 11.7377 1.98131 12.014 1.98131C14.0164 1.98131 16.0187 3.77791 16.0187 5.98598C16.0187 6.26231 16.243 6.48657 16.5193 6.48657C16.7956 6.48657 17.0199 6.26231 17.0199 5.98598C17.0199 3.22576 15.0175 0.980145 12.014 0.980145Z" fill="#5DADEC"/>
<path d="M14.5167 0C14.2404 0 14.0161 0.203237 14.0161 0.479559C14.0161 0.755882 14.2404 1.00117 14.5167 1.00117C16.0184 1.00117 16.9986 2.11497 16.9986 3.48306C16.9986 3.75939 17.2434 3.98365 17.5202 3.98365C17.797 3.98365 17.9998 3.75939 17.9998 3.48306C17.9998 1.56232 16.519 0 14.5167 0Z" fill="#5DADEC"/>
</svg>
