<svg width="18" height="19" viewBox="0 0 18 19" fill="none" xmlns="http://www.w3.org/2000/svg">
<path d="M8.9998 2.29999C11.5351 2.29999 12.9733 4.03069 13.1821 6.12139H13.2451C14.8786 6.12139 16.1998 7.48219 16.1998 9.16069C16.1998 9.24619 16.1962 9.33169 16.1899 9.41539C15.8998 9.05353 15.5626 8.73209 15.1873 8.45959C14.9083 7.61989 14.1406 7.02139 13.246 7.02139H13.1821C12.959 7.02139 12.7438 6.93852 12.5784 6.78885C12.4129 6.63918 12.3089 6.43338 12.2866 6.21139C12.1048 4.39249 10.8979 3.19999 8.9998 3.19999C7.0972 3.19999 5.8957 4.38439 5.713 6.21049C5.6909 6.43265 5.58702 6.63866 5.42153 6.78852C5.25604 6.93837 5.04076 7.02137 4.8175 7.02139H4.7545C3.6241 7.02139 2.6998 7.97359 2.6998 9.16069C2.6998 10.3487 3.625 11.3 4.7536 11.3H7.153C7.07339 11.5947 7.02008 11.8959 6.9937 12.2H4.7536C3.1219 12.2 1.7998 10.8392 1.7998 9.16069C1.7998 7.53799 3.0355 6.21229 4.5916 6.12589L4.8175 6.12139C5.0281 4.01719 6.4645 2.29999 8.9998 2.29999ZM12.1498 16.7C11.0757 16.7 10.0455 16.2733 9.28602 15.5138C8.5265 14.7542 8.0998 13.7241 8.0998 12.65C8.0998 11.5759 8.5265 10.5457 9.28602 9.78621C10.0455 9.02668 11.0757 8.59999 12.1498 8.59999C13.2239 8.59999 14.2541 9.02668 15.0136 9.78621C15.7731 10.5457 16.1998 11.5759 16.1998 12.65C16.1998 13.7241 15.7731 14.7542 15.0136 15.5138C14.2541 16.2733 13.2239 16.7 12.1498 16.7ZM13.5916 12.2918L12.5998 13.2836V10.85C12.5998 10.7306 12.5524 10.6162 12.468 10.5318C12.3836 10.4474 12.2692 10.4 12.1498 10.4C12.0305 10.4 11.916 10.4474 11.8316 10.5318C11.7472 10.6162 11.6998 10.7306 11.6998 10.85V13.2836L10.708 12.2918C10.613 12.1968 10.4842 12.1434 10.3498 12.1434C10.2155 12.1434 10.0866 12.1968 9.9916 12.2918C9.8966 12.3868 9.84323 12.5156 9.84323 12.65C9.84323 12.7843 9.8966 12.9132 9.9916 13.0082L11.7916 14.8082C11.9896 15.0062 12.31 15.0062 12.508 14.8082L14.308 13.0082C14.403 12.9132 14.4564 12.7843 14.4564 12.65C14.4564 12.5156 14.403 12.3868 14.308 12.2918C14.213 12.1968 14.0842 12.1434 13.9498 12.1434C13.8155 12.1434 13.6866 12.1968 13.5916 12.2918Z" fill="black"/>
</svg>
